<svg width="112" height="112" viewBox="0 0 112 112" fill="none" xmlns="http://www.w3.org/2000/svg">
<g clip-path="url(#clip0_3056_925)">
<mask id="mask0_3056_925" style="mask-type:luminance" maskUnits="userSpaceOnUse" x="0" y="0" width="112" height="112">
<path d="M112 56C112 25.0721 86.9279 0 56 0C25.0721 0 0 25.0721 0 56C0 86.9279 25.0721 112 56 112C86.9279 112 112 86.9279 112 56Z" fill="white"/>
</mask>
<g mask="url(#mask0_3056_925)">
<path d="M95.1748 -8.26058L-13.4961 18.8438L13.6082 127.515L122.279 100.41L95.1748 -8.26058Z" fill="#405059"/>
<path d="M8.18573 38.0877L26.6684 118.114C29.2203 129.164 40.2464 136.052 51.2957 133.5L131.322 115.018C142.372 112.466 149.26 101.44 146.708 90.3904L128.226 10.3637C125.674 -0.685707 114.648 -7.57426 103.598 -5.02233L23.5717 13.4603C12.5224 16.0123 5.6338 27.0383 8.18573 38.0877Z" fill="#A5A6F6"/>
<path d="M64.7734 75.9961C65.4697 79.0109 67.7344 81.5335 71.0691 83.0088C74.4039 84.4841 78.5356 84.7914 82.5554 83.863C86.5752 82.9346 90.1537 80.8466 92.5038 78.0583C94.8538 75.2701 95.7829 72.0099 95.0866 68.9951" fill="black"/>
<path d="M65.8193 59.7878C65.4327 58.1137 64.1014 56.9916 62.8458 57.2816C61.5901 57.5716 60.8857 59.1638 61.2724 60.838C61.659 62.5121 62.9903 63.6342 64.246 63.3442C65.5016 63.0542 66.206 61.462 65.8193 59.7878Z" fill="black"/>
<path d="M90.0752 54.1862C89.6885 52.5121 88.3572 51.39 87.1016 51.68C85.846 51.97 85.1416 53.5622 85.5282 55.2364C85.9149 56.9105 87.2462 58.0326 88.5018 57.7426C89.7574 57.4526 90.4619 55.8604 90.0752 54.1862Z" fill="black"/>
</g>
</g>
<defs>
<clipPath id="clip0_3056_925">
<rect width="112" height="112" fill="white"/>
</clipPath>
</defs>
</svg>
