<svg width="96" height="52" viewBox="0 0 96 52" fill="none" xmlns="http://www.w3.org/2000/svg">
<path d="M53.2136 22.9803C52.9747 22.9803 52.7173 22.9645 52.46 22.9487C50.5666 22.8065 48.2687 21.7641 46.3754 20.2321C45.3459 20.8481 44.1878 21.2587 42.9562 21.4482C40.879 21.7641 38.7466 21.3851 36.9819 20.4058C30.9892 17.1681 29.2061 10.3767 32.9745 5.22781C33.6179 4.34335 34.4267 3.53785 35.3275 2.84292C37.2025 1.38987 39.6841 0.679142 42.2025 0.884464C44.0408 1.02661 45.7871 1.62678 47.2209 2.6376C49.6107 0.963434 52.5703 0.031588 55.6401 0H55.9343C59.2615 0.142146 61.8167 2.59022 61.6512 5.44893C61.4858 8.1655 58.9122 10.3135 55.7504 10.3767H55.5666C53.7651 10.3451 52.0923 9.61854 50.9894 8.40241L47.5151 4.62764C47.4048 4.51708 47.3129 4.40652 47.2026 4.31176C45.0886 6.14386 43.8202 8.57614 43.618 11.1348C43.379 13.8513 44.4084 16.5363 46.4856 18.5895C46.6879 18.4158 46.8901 18.2263 47.0739 18.0209L51.1548 13.5355L51.1732 13.5197C53.3975 11.3875 57.221 11.2137 59.7027 13.1406C62.1843 15.0675 62.3865 18.3368 60.1438 20.469C59.7394 20.8639 59.2615 21.1955 58.7468 21.464C57.7174 22.0484 55.732 22.9803 53.2136 22.9803ZM47.4599 19.4424C49.1879 20.8323 51.1364 21.6378 52.5703 21.7325C52.7908 21.7483 52.9931 21.7483 53.2136 21.7483C55.3828 21.7483 57.074 20.927 57.9379 20.4058L57.9747 20.3743C60.1806 19.2687 60.9159 16.8206 59.6108 14.9411C58.3056 13.0616 55.4747 12.4141 53.2872 13.5355C52.8828 13.7408 52.5335 13.9935 52.221 14.2778L48.1768 18.7317C47.9562 19.0002 47.7173 19.2371 47.4599 19.4424ZM41.3937 2.05322C39.5003 2.05322 37.6804 2.65339 36.2834 3.74318C31.5591 7.31262 31.0995 13.5039 35.2723 17.5629C35.9892 18.2737 36.8348 18.8738 37.754 19.3792C40.0885 20.6743 43.0849 20.6585 45.4011 19.3476C43.0665 17.0575 41.9268 14.0567 42.2209 11.04C42.4415 8.18129 43.8386 5.49631 46.1731 3.45888C44.9967 2.66919 43.5812 2.19537 42.0922 2.08481C41.8533 2.06901 41.6143 2.05322 41.3937 2.05322ZM48.2504 3.47468C48.379 3.60103 48.5077 3.72738 48.618 3.85373L52.0923 7.6285C52.9379 8.56035 54.2063 9.11314 55.585 9.14472H55.7137C58.2688 9.09734 60.2909 7.26524 60.2174 5.06987C60.1622 2.96927 58.1953 1.26352 55.732 1.20034C53.0298 1.23193 50.3827 2.02163 48.2504 3.47468Z" fill="#0B0728"/>
<path d="M2.55615 37.9419C1.76571 37.5786 1.12232 37.0258 0.681139 36.3467C0.221576 35.6359 -0.017396 34.8463 0.000986458 34.0408C-0.017396 33.2353 0.221576 32.4456 0.681139 31.7506C1.12232 31.0873 1.76571 30.5345 2.55615 30.1712C3.38337 29.7922 4.32087 29.5868 5.25838 29.6026C6.06721 29.5868 6.87604 29.7448 7.61134 30.0449C8.29149 30.3292 8.86135 30.7714 9.24738 31.3242L8.21796 31.9244C7.90546 31.5137 7.46428 31.1662 6.93119 30.9451C6.3981 30.724 5.82824 30.6135 5.25838 30.6135C4.55985 30.5977 3.87969 30.7556 3.27307 31.0399C2.68483 31.3242 2.20689 31.7348 1.89438 32.2402C1.23261 33.3616 1.23261 34.6883 1.89438 35.8097C2.20689 36.3151 2.68483 36.7257 3.27307 37.01C3.87969 37.2943 4.55985 37.4365 5.25838 37.4365C5.84662 37.4365 6.41648 37.3259 6.94957 37.1206C7.46428 36.8995 7.90546 36.5678 8.23635 36.1572L9.26577 36.7573C8.87973 37.3101 8.29149 37.7681 7.61134 38.0524C6.87604 38.3525 6.08559 38.4947 5.27676 38.4947C4.32087 38.5105 3.38337 38.3209 2.55615 37.9419Z" fill="#0B0728"/>
<path d="M20.2405 34.4196H11.7294C11.7661 35.2725 12.2073 36.0622 12.9426 36.6149C13.6779 37.1677 14.6154 37.452 15.7367 37.452C16.325 37.452 16.9316 37.3573 17.4831 37.1677C18.0162 36.9782 18.4757 36.6781 18.8618 36.3149L19.6338 37.073C19.1743 37.5468 18.6044 37.9101 17.9426 38.1312C17.2257 38.3839 16.472 38.5102 15.7 38.4944C14.7257 38.5102 13.7698 38.3207 12.9242 37.9258C12.1338 37.5626 11.4904 37.0098 11.0308 36.3307C10.5713 35.6357 10.3323 34.846 10.3507 34.0405C10.3323 33.235 10.5529 32.4453 10.9941 31.7504C11.3985 31.087 12.0235 30.5501 12.7772 30.171C13.5492 29.7919 14.4316 29.6024 15.3139 29.6024C16.1963 29.5866 17.0787 29.7919 17.8507 30.171C18.586 30.5501 19.211 31.087 19.6155 31.7346C20.0566 32.4453 20.2772 33.235 20.2588 34.0405L20.2405 34.4196ZM12.8507 31.4345C12.1705 31.9873 11.7661 32.7454 11.711 33.5351H18.9169C18.8618 32.7296 18.4574 31.9873 17.7772 31.4345C17.097 30.8975 16.2147 30.5974 15.2956 30.629C14.4132 30.6132 13.5125 30.8975 12.8507 31.4345Z" fill="#0B0728"/>
<path d="M30.9025 30.5661C31.6562 31.1978 32.0422 32.1297 32.0422 33.3458V38.4157H30.6636V33.4564C30.6636 32.5561 30.4062 31.8612 29.8731 31.3716C29.34 30.882 28.5863 30.6608 27.6121 30.6608C26.5091 30.6608 25.6451 30.9451 25.0201 31.4979C24.3951 32.0507 24.0642 32.8246 24.0642 33.8196V38.3999H22.6855V29.6658H23.9907V31.2768C24.3584 30.7398 24.9098 30.3134 25.5532 30.0449C26.2701 29.7448 27.0606 29.5868 27.8694 29.6026C29.1378 29.6184 30.1488 29.9343 30.9025 30.5661Z" fill="#0B0728"/>
<path d="M40.7376 38.7382C40.4619 38.9435 40.131 39.1015 39.7818 39.1962C39.3957 39.3068 38.9913 39.3542 38.5869 39.3542C37.631 39.3542 36.8957 39.1331 36.381 38.6908C35.8663 38.2486 35.6089 37.6168 35.6089 36.8113V31.5204H33.7891V30.5253H35.6089V28.6143H36.9876V30.5253H40.0759V31.5204H36.9876V36.7324C36.9876 37.2536 37.1347 37.6484 37.4472 37.9169C37.7413 38.1854 38.1825 38.3276 38.7523 38.3276C39.0281 38.3276 39.3038 38.296 39.5796 38.217C39.8369 38.138 40.0575 38.0275 40.2597 37.8853L40.7376 38.7382Z" fill="#0B0728"/>
<path d="M51.3409 34.4196H42.8298C42.8665 35.2725 43.3077 36.0622 44.043 36.6149C44.7783 37.1677 45.7158 37.452 46.8188 37.452C47.407 37.452 48.0136 37.3573 48.5651 37.1677C49.0982 36.9782 49.5578 36.6781 49.9438 36.3149L50.7159 37.073C50.2563 37.5468 49.6864 37.9101 49.0247 38.1312C48.3078 38.3839 47.5541 38.5102 46.782 38.4944C45.8077 38.5102 44.8518 38.3207 44.0063 37.9258C43.2158 37.5626 42.5724 37.0098 42.1129 36.3307C41.6533 35.6357 41.4143 34.846 41.4327 34.0405C41.4143 33.235 41.6349 32.4453 42.0761 31.7504C42.4805 31.087 43.1055 30.5501 43.8592 30.171C44.6313 29.7919 45.5136 29.6024 46.396 29.6024C47.2783 29.5866 48.1607 29.7919 48.9328 30.171C49.6864 30.5501 50.2931 31.087 50.6975 31.7346C51.1387 32.4453 51.3593 33.235 51.3409 34.0405V34.4196ZM43.9511 31.4345C43.271 31.9873 42.8665 32.7454 42.8114 33.5351H50.0173C49.9622 32.7454 49.5578 31.9873 48.896 31.4345C47.4989 30.3605 45.3849 30.3605 43.9511 31.4345Z" fill="#0B0728"/>
<path d="M62.0029 30.5661C62.7566 31.1978 63.1243 32.1297 63.1243 33.3458V38.4157H61.7456V33.4564C61.7456 32.5561 61.4882 31.8612 60.9551 31.3716C60.422 30.8977 59.6684 30.6608 58.6941 30.6608C57.5911 30.6608 56.7272 30.9451 56.1022 31.4979C55.4772 32.0507 55.1463 32.8246 55.1463 33.8196V38.3999H53.7676V29.6658H55.0911V31.2768C55.4588 30.7398 56.0102 30.3134 56.6536 30.0449C57.3706 29.7448 58.161 29.5868 58.9698 29.6026C60.2382 29.6184 61.2493 29.9343 62.0029 30.5661Z" fill="#0B0728"/>
<path d="M75.664 29.6016V38.3514H74.3405V36.7562C73.9912 37.2774 73.4765 37.7039 72.8515 37.9882C72.1897 38.2883 71.436 38.4462 70.6824 38.4304C69.3588 38.4304 68.311 38.1145 67.539 37.467C66.7669 36.8352 66.3809 35.9034 66.3809 34.6714V29.6016H67.7595V34.5609C67.7595 35.4769 68.0169 36.1877 68.55 36.6615C69.0831 37.1353 69.8368 37.3722 70.811 37.3722C71.8772 37.3722 72.7228 37.0879 73.3478 36.5351C73.9728 35.9823 74.2853 35.1926 74.2853 34.1976V29.6174L75.664 29.6016Z" fill="#0B0728"/>
<path d="M94.8158 30.5504C95.5511 31.1821 95.9004 32.114 95.9188 33.3459V38.4158H94.5401V33.4565C94.5401 32.5562 94.2828 31.8613 93.7864 31.3717C93.2717 30.8979 92.5548 30.6609 91.6357 30.6609C90.5879 30.6609 89.7423 30.9452 89.1357 31.498C88.529 32.0508 88.2165 32.8247 88.2165 33.8197V38.4H86.8378V33.4565C86.8378 32.5562 86.5805 31.8613 86.0658 31.3717C85.5511 30.8979 84.8341 30.6609 83.8966 30.6609C82.8488 30.6609 82.0216 30.9452 81.415 31.498C80.8084 32.0508 80.4959 32.8247 80.4959 33.8197V38.4H79.1172V29.6659H80.4407V31.2611C80.79 30.7399 81.3231 30.3135 81.9481 30.0292C82.6466 29.7291 83.4003 29.587 84.1724 29.6027C84.9444 29.587 85.7165 29.7449 86.3783 30.0766C87.0033 30.3924 87.4996 30.8821 87.7753 31.4506C88.143 30.8663 88.7129 30.4082 89.393 30.0924C90.1283 29.7607 90.9555 29.587 91.8011 29.6027C93.0879 29.6027 94.0805 29.9186 94.8158 30.5504Z" fill="#0B0728"/>
<path d="M38.4449 47.888C38.6838 48 38.8861 48.1761 39.0147 48.3842C39.2905 48.8484 39.2905 49.3926 39.0147 49.8568C38.8861 50.0649 38.6838 50.241 38.4449 50.353C38.1875 50.4811 37.9118 50.5291 37.636 50.5291C37.3971 50.5291 37.1581 50.4811 36.9375 50.385C36.7353 50.289 36.5515 50.1449 36.4228 49.9848V51.5215H36V47.7279H36.4044V48.2721C36.5331 48.0961 36.6985 47.952 36.9191 47.856C37.1397 47.7599 37.3787 47.7119 37.636 47.7119C37.9118 47.7119 38.1875 47.7759 38.4449 47.888ZM38.2059 50.0649C38.3897 49.9688 38.5368 49.8408 38.6287 49.6807C38.8309 49.3286 38.8309 48.9124 38.6287 48.5603C38.5368 48.4002 38.3897 48.2721 38.2059 48.1761C37.8199 48 37.3787 48 36.9927 48.1761C36.8088 48.2721 36.6618 48.4002 36.5699 48.5603C36.3677 48.9124 36.3677 49.3286 36.5699 49.6807C36.6618 49.8408 36.8088 49.9688 36.9927 50.0649C37.3787 50.241 37.8383 50.241 38.2059 50.0649Z" fill="#0B0728"/>
<path d="M44.1031 47.856C44.3237 47.7599 44.581 47.7119 44.8384 47.7119V48.0801H44.7281C44.4339 48.0641 44.1398 48.1601 43.9376 48.3522C43.7354 48.5603 43.6251 48.8324 43.6435 49.1045V50.5131H43.2207V47.7439H43.6251V48.2882C43.7354 48.0961 43.9009 47.952 44.1031 47.856Z" fill="#0B0728"/>
<path d="M49.6349 50.341C49.3959 50.229 49.1937 50.0529 49.0466 49.8448C48.7709 49.3966 48.7709 48.8364 49.0466 48.3882C49.1753 48.1801 49.3775 48.004 49.6349 47.892C50.1496 47.6519 50.7746 47.6519 51.2893 47.892C51.5283 48.004 51.7305 48.1801 51.8592 48.3882C52.1349 48.8364 52.1349 49.3806 51.8592 49.8448C51.7305 50.0529 51.5283 50.229 51.2893 50.341C50.7746 50.5811 50.1496 50.5811 49.6349 50.341ZM51.0871 50.0529C51.2709 49.9568 51.418 49.8288 51.5099 49.6687C51.7121 49.3166 51.7121 48.9004 51.5099 48.5483C51.418 48.3882 51.2709 48.2601 51.0871 48.1641C50.7011 47.988 50.2415 47.988 49.8739 48.1641C49.69 48.2601 49.543 48.3882 49.4511 48.5483C49.2489 48.9004 49.2489 49.3166 49.4511 49.6687C49.543 49.8288 49.69 49.9568 49.8739 50.0529C50.2415 50.229 50.7011 50.229 51.0871 50.0529Z" fill="#0B0728"/>
<path d="M58.5093 47.888C58.7483 48 58.9505 48.1761 59.0792 48.3842C59.3549 48.8484 59.3549 49.3926 59.0792 49.8568C58.9505 50.0649 58.7483 50.241 58.5093 50.353C58.252 50.4811 57.9762 50.5291 57.7005 50.5291C57.4615 50.5291 57.2225 50.4811 57.002 50.385C56.7997 50.289 56.6159 50.1449 56.4872 49.9848V51.5215H56.0645V47.7279H56.4689V48.2721C56.5975 48.0961 56.763 47.952 56.9836 47.856C57.2042 47.7599 57.4615 47.7119 57.7005 47.7119C57.9946 47.7119 58.2704 47.7759 58.5093 47.888ZM58.2704 50.0649C58.4542 49.9688 58.6012 49.8408 58.6931 49.6807C58.8954 49.3286 58.8954 48.9124 58.6931 48.5603C58.6012 48.4002 58.4542 48.2721 58.2704 48.1761C57.8843 48 57.4431 48 57.0571 48.1761C56.8733 48.2721 56.7262 48.4002 56.6343 48.5603C56.4321 48.9124 56.4321 49.3286 56.6343 49.6807C56.7262 49.8408 56.8733 49.9688 57.0571 50.0649C57.4431 50.241 57.9027 50.241 58.2704 50.0649Z" fill="#0B0728"/>
</svg>
