<svg width="112" height="112" viewBox="0 0 112 112" fill="none" xmlns="http://www.w3.org/2000/svg">
<g clip-path="url(#clip0_3056_903)">
<mask id="mask0_3056_903" style="mask-type:luminance" maskUnits="userSpaceOnUse" x="0" y="0" width="112" height="112">
<path d="M112 56C112 25.0721 86.9279 0 56 0C25.0721 0 0 25.0721 0 56C0 86.9279 25.0721 112 56 112C86.9279 112 112 86.9279 112 56Z" fill="white"/>
</mask>
<g mask="url(#mask0_3056_903)">
<path d="M112 -0.00195312H0V111.998H112V-0.00195312Z" fill="#73B06F"/>
<path d="M19.7476 60.4685L77.7745 107.458C85.7864 113.946 97.5407 112.71 104.029 104.698L151.018 46.6715C157.506 38.6596 156.27 26.9053 148.258 20.4174L90.2315 -26.5718C82.2197 -33.0597 70.4653 -31.8243 63.9775 -23.8124L16.9882 34.2145C10.5004 42.2263 11.7358 53.9806 19.7476 60.4685Z" fill="#405059"/>
<path d="M60.2969 45.168C65.9558 49.2141 72.1014 50.1875 78.7337 48.0881" stroke="white" stroke-width="3.40944" stroke-linecap="round"/>
<path d="M51.4878 31.1739C51.7566 29.4769 50.9426 27.9377 49.6698 27.7361C48.397 27.5345 47.1473 28.7468 46.8785 30.4439C46.6098 32.141 47.4237 33.6801 48.6965 33.8817C49.9693 34.0833 51.219 32.871 51.4878 31.1739Z" fill="white"/>
<path d="M94.5053 37.9864C94.7741 36.2894 93.9602 34.7502 92.6874 34.5486C91.4146 34.347 90.1649 35.5593 89.8961 37.2564C89.6273 38.9535 90.4412 40.4926 91.714 40.6942C92.9868 40.8958 94.2366 39.6835 94.5053 37.9864Z" fill="white"/>
</g>
</g>
<defs>
<clipPath id="clip0_3056_903">
<rect width="112" height="112" fill="white"/>
</clipPath>
</defs>
</svg>
