<svg width="30" height="30" viewBox="0 0 30 30" fill="none" xmlns="http://www.w3.org/2000/svg">
<g clip-path="url(#clip0_2858_8519)">
<path d="M15.0039 2.39648C18.4002 2.39648 18.8239 2.40898 20.1564 2.47148C21.4877 2.53398 22.3939 2.74273 23.1914 3.05273C24.0164 3.37023 24.7114 3.80023 25.4064 4.49398C26.042 5.11885 26.5339 5.87472 26.8477 6.70898C27.1564 7.50523 27.3664 8.41273 27.4289 9.74398C27.4877 11.0765 27.5039 11.5002 27.5039 14.8965C27.5039 18.2927 27.4914 18.7165 27.4289 20.049C27.3664 21.3802 27.1564 22.2865 26.8477 23.084C26.5348 23.9187 26.0428 24.6748 25.4064 25.299C24.7814 25.9344 24.0255 26.4262 23.1914 26.7402C22.3952 27.049 21.4877 27.259 20.1564 27.3215C18.8239 27.3802 18.4002 27.3965 15.0039 27.3965C11.6077 27.3965 11.1839 27.384 9.85141 27.3215C8.52016 27.259 7.61391 27.049 6.81641 26.7402C5.98181 26.4271 5.22582 25.9352 4.60141 25.299C3.96566 24.6742 3.47382 23.9183 3.16016 23.084C2.85016 22.2877 2.64141 21.3802 2.57891 20.049C2.52016 18.7165 2.50391 18.2927 2.50391 14.8965C2.50391 11.5002 2.51641 11.0765 2.57891 9.74398C2.64141 8.41148 2.85016 7.50648 3.16016 6.70898C3.47295 5.87421 3.96491 5.11814 4.60141 4.49398C5.226 3.85802 5.98194 3.36615 6.81641 3.05273C7.61391 2.74273 8.51891 2.53398 9.85141 2.47148C11.1839 2.41273 11.6077 2.39648 15.0039 2.39648ZM15.0039 8.64648C13.3463 8.64648 11.7566 9.30497 10.5845 10.4771C9.41239 11.6492 8.75391 13.2389 8.75391 14.8965C8.75391 16.5541 9.41239 18.1438 10.5845 19.3159C11.7566 20.488 13.3463 21.1465 15.0039 21.1465C16.6615 21.1465 18.2512 20.488 19.4233 19.3159C20.5954 18.1438 21.2539 16.5541 21.2539 14.8965C21.2539 13.2389 20.5954 11.6492 19.4233 10.4771C18.2512 9.30497 16.6615 8.64648 15.0039 8.64648ZM23.1289 8.33398C23.1289 7.91958 22.9643 7.52216 22.6713 7.22913C22.3782 6.9361 21.9808 6.77148 21.5664 6.77148C21.152 6.77148 20.7546 6.9361 20.4616 7.22913C20.1685 7.52216 20.0039 7.91958 20.0039 8.33398C20.0039 8.74839 20.1685 9.14581 20.4616 9.43884C20.7546 9.73186 21.152 9.89649 21.5664 9.89649C21.9808 9.89649 22.3782 9.73186 22.6713 9.43884C22.9643 9.14581 23.1289 8.74839 23.1289 8.33398ZM15.0039 11.1465C15.9985 11.1465 16.9523 11.5416 17.6556 12.2448C18.3588 12.9481 18.7539 13.9019 18.7539 14.8965C18.7539 15.891 18.3588 16.8449 17.6556 17.5481C16.9523 18.2514 15.9985 18.6465 15.0039 18.6465C14.0093 18.6465 13.0555 18.2514 12.3523 17.5481C11.649 16.8449 11.2539 15.891 11.2539 14.8965C11.2539 13.9019 11.649 12.9481 12.3523 12.2448C13.0555 11.5416 14.0093 11.1465 15.0039 11.1465Z" fill="white"/>
</g>
<defs>
<clipPath id="clip0_2858_8519">
<rect width="30" height="30" fill="white"/>
</clipPath>
</defs>
</svg>
