<svg width="112" height="112" viewBox="0 0 112 112" fill="none" xmlns="http://www.w3.org/2000/svg">
<g clip-path="url(#clip0_3056_914)">
<mask id="mask0_3056_914" style="mask-type:luminance" maskUnits="userSpaceOnUse" x="0" y="0" width="112" height="112">
<path d="M112 56C112 25.0721 86.9279 0 56 0C25.0721 0 0 25.0721 0 56C0 86.9279 25.0721 112 56 112C86.9279 112 112 86.9279 112 56Z" fill="white"/>
</mask>
<g mask="url(#mask0_3056_914)">
<path d="M112 0H0V112H112V0Z" fill="#405059"/>
<path d="M16.3797 23.9193L14.9462 106.04C14.7483 117.379 23.7796 126.731 35.1181 126.929L117.239 128.362C128.577 128.56 137.93 119.529 138.127 108.19L139.561 26.0694C139.759 14.7309 130.728 5.37876 119.389 5.18084L37.2682 3.74742C25.9297 3.5495 16.5776 12.5807 16.3797 23.9193Z" fill="#EDD75A"/>
<path d="M62.1113 74.3945C62.0573 77.4883 63.6442 80.4839 66.5228 82.7224C69.4014 84.9609 73.3359 86.2589 77.4609 86.3309C81.5859 86.4029 85.5633 85.243 88.5183 83.1063C91.4733 80.9696 93.1637 78.0312 93.2177 74.9375" fill="black"/>
<path d="M67.0492 58.9206C67.0791 57.2026 66.0589 55.7917 64.7705 55.7692C63.482 55.7467 62.4132 57.1212 62.3832 58.8392C62.3532 60.5571 63.3734 61.968 64.6619 61.9905C65.9504 62.013 67.0192 60.6386 67.0492 58.9206Z" fill="black"/>
<path d="M91.9378 59.3561C91.9678 57.6382 90.9476 56.2273 89.6591 56.2048C88.3707 56.1823 87.3019 57.5567 87.2719 59.2747C87.2419 60.9927 88.2621 62.4036 89.5506 62.4261C90.839 62.4485 91.9078 61.0741 91.9378 59.3561Z" fill="black"/>
</g>
</g>
<defs>
<clipPath id="clip0_3056_914">
<rect width="112" height="112" fill="white"/>
</clipPath>
</defs>
</svg>
