<svg width="30" height="30" viewBox="0 0 30 30" fill="none" xmlns="http://www.w3.org/2000/svg">
<g clip-path="url(#clip0_2858_8525)">
<path d="M8.67578 6.2493C8.67545 6.91234 8.41174 7.54809 7.94267 8.0167C7.47359 8.4853 6.83757 8.74838 6.17453 8.74805C5.51149 8.74772 4.87574 8.48401 4.40713 8.01493C3.93852 7.54586 3.67545 6.90984 3.67578 6.2468C3.67611 5.58376 3.93982 4.948 4.4089 4.4794C4.87797 4.01079 5.51399 3.74772 6.17703 3.74805C6.84007 3.74838 7.47583 4.01209 7.94443 4.48116C8.41304 4.95024 8.67611 5.58626 8.67578 6.2493ZM8.75078 10.5993H3.75078V26.2493H8.75078V10.5993ZM16.6508 10.5993H11.6758V26.2493H16.6008V18.0368C16.6008 13.4618 22.5633 13.0368 22.5633 18.0368V26.2493H27.5008V16.3368C27.5008 8.6243 18.6758 8.9118 16.6008 12.6993L16.6508 10.5993Z" fill="white"/>
</g>
<defs>
<clipPath id="clip0_2858_8525">
<rect width="30" height="30" fill="white"/>
</clipPath>
</defs>
</svg>
