<svg width="141" height="141" viewBox="0 0 141 141" fill="none" xmlns="http://www.w3.org/2000/svg">
<g clip-path="url(#clip0_3056_891)">
<mask id="mask0_3056_891" style="mask-type:luminance" maskUnits="userSpaceOnUse" x="0" y="0" width="141" height="141">
<path d="M141 70.5C141 31.5639 109.436 0 70.5 0C31.5639 0 0 31.5639 0 70.5C0 109.436 31.5639 141 70.5 141C109.436 141 141 109.436 141 70.5Z" fill="white"/>
</mask>
<g mask="url(#mask0_3056_891)">
<path d="M141 0H0V141H141V0Z" fill="#0C8F8F"/>
<path d="M55.9821 160.273L158.214 112.601C172.329 106.019 178.436 89.2409 171.854 75.1257L124.182 -27.1058C117.6 -41.221 100.822 -47.3279 86.7066 -40.7459L-15.5249 6.92548C-29.6402 13.5075 -35.747 30.286 -29.165 44.4012L18.5064 146.633C25.0884 160.748 41.8669 166.855 55.9821 160.273Z" fill="#FFAD08"/>
<path d="M71.5723 67.5605C79.7172 70.7796 87.5207 70.0969 94.9828 65.5124" stroke="black" stroke-width="3.91667" stroke-linecap="round"/>
<path d="M71.4733 43.9815C71.2848 41.8266 69.8218 40.1944 68.2056 40.3358C66.5895 40.4772 65.4321 42.3387 65.6207 44.4936C65.8092 46.6484 67.2722 48.2807 68.8883 48.1393C70.5045 47.9979 71.6618 46.1364 71.4733 43.9815Z" fill="black"/>
<path d="M94.8854 41.9327C94.6969 39.7778 93.2339 38.1456 91.6177 38.2869C90.0016 38.4283 88.8442 40.2898 89.0328 42.4447C89.2213 44.5996 90.6843 46.2319 92.3004 46.0905C93.9166 45.9491 95.0739 44.0876 94.8854 41.9327Z" fill="black"/>
</g>
</g>
<defs>
<clipPath id="clip0_3056_891">
<rect width="141" height="141" fill="white"/>
</clipPath>
</defs>
</svg>
