<svg width="95" height="51" viewBox="0 0 95 51" fill="none" xmlns="http://www.w3.org/2000/svg">
<path d="M52.5493 22.8493C52.3133 22.8493 52.0591 22.8336 51.805 22.8179C49.9353 22.6766 47.6662 21.6401 45.7964 20.1168C44.7799 20.7293 43.6363 21.1376 42.42 21.326C40.3688 21.6401 38.2631 21.2632 36.5204 20.2896C30.6026 17.0702 28.8418 10.3175 32.5631 5.19802C33.1985 4.3186 33.9972 3.51769 34.8867 2.82672C36.7382 1.38195 39.1889 0.675272 41.6758 0.879424C43.491 1.02076 45.2156 1.61751 46.6315 2.62257C48.9913 0.957943 51.9139 0.031408 54.9454 0H55.2359C58.5215 0.141336 61.0447 2.57546 60.8813 5.41788C60.718 8.11897 58.1766 10.2547 55.0543 10.3175H54.8728C53.0938 10.2861 51.4419 9.56373 50.3528 8.35453L46.9219 4.60127C46.813 4.49134 46.7222 4.38141 46.6133 4.28719C44.5258 6.10885 43.2732 8.52727 43.0735 11.0713C42.8375 13.7724 43.8541 16.4421 45.9054 18.4836C46.105 18.3109 46.3047 18.1224 46.4862 17.9183L50.5161 13.4583L50.5343 13.4426C52.7308 11.3226 56.5065 11.1498 58.9572 13.0657C61.4078 14.9816 61.6075 18.2323 59.3928 20.3524C58.9935 20.745 58.5215 21.0748 58.0132 21.3417C56.9967 21.9228 55.0362 22.8493 52.5493 22.8493ZM46.8675 19.3316C48.5738 20.7136 50.498 21.5145 51.9139 21.6087C52.1317 21.6244 52.3314 21.6244 52.5493 21.6244C54.6913 21.6244 56.3613 20.8078 57.2145 20.2896L57.2508 20.2582C59.4291 19.1589 60.1552 16.7248 58.8664 14.856C57.5776 12.9872 54.782 12.3433 52.6219 13.4583C52.2225 13.6625 51.8776 13.9137 51.569 14.1964L47.5754 18.6249C47.3576 18.8919 47.1216 19.1275 46.8675 19.3316ZM40.8771 2.04152C39.0073 2.04152 37.2102 2.63827 35.8306 3.72185C31.1653 7.27095 30.7115 13.4269 34.8322 17.4628C35.5402 18.1695 36.3752 18.7663 37.2828 19.2688C39.5882 20.5565 42.5471 20.5408 44.8343 19.2374C42.529 16.9603 41.4035 13.9766 41.6939 10.9771C41.9118 8.13467 43.2914 5.46499 45.5968 3.43917C44.435 2.65398 43.0372 2.18286 41.5669 2.07293C41.3309 2.05722 41.0949 2.04152 40.8771 2.04152ZM47.648 3.45488C47.7751 3.58051 47.9022 3.70614 48.0111 3.83177L51.4419 7.58503C52.277 8.51157 53.5295 9.06121 54.891 9.09261H55.018C57.5413 9.0455 59.538 7.22384 59.4654 5.04098C59.411 2.95235 57.4686 1.25632 55.0362 1.1935C52.3677 1.22491 49.7537 2.01011 47.648 3.45488Z" fill="white"/>
<path d="M2.5242 37.7264C1.74364 37.3652 1.10829 36.8155 0.672625 36.1403C0.218807 35.4336 -0.0171786 34.6484 0.000974127 33.8475C-0.0171786 33.0466 0.218807 32.2614 0.672625 31.5704C1.10829 30.9108 1.74364 30.3612 2.5242 30C3.34107 29.6231 4.26686 29.419 5.19265 29.4347C5.99137 29.419 6.79009 29.576 7.5162 29.8744C8.18785 30.1571 8.75059 30.5968 9.13179 31.1464L8.11524 31.7432C7.80664 31.3349 7.37098 30.9894 6.84455 30.7695C6.31812 30.5497 5.75539 30.4397 5.19265 30.4397C4.50285 30.424 3.8312 30.5811 3.23216 30.8637C2.65127 31.1464 2.1793 31.5547 1.8707 32.0572C1.21721 33.1722 1.21721 34.4914 1.8707 35.6063C2.1793 36.1089 2.65127 36.5172 3.23216 36.7998C3.8312 37.0825 4.50285 37.2238 5.19265 37.2238C5.77354 37.2238 6.33627 37.1139 6.8627 36.9098C7.37098 36.6899 7.80664 36.3601 8.13339 35.9518L9.14994 36.5486C8.76874 37.0982 8.18785 37.5536 7.5162 37.8363C6.79009 38.1347 6.00952 38.276 5.2108 38.276C4.26686 38.2917 3.34107 38.1033 2.5242 37.7264Z" fill="white"/>
<path d="M19.986 34.2242H11.5813C11.6176 35.0722 12.0532 35.8574 12.7793 36.407C13.5054 36.9566 14.4312 37.2393 15.5385 37.2393C16.1194 37.2393 16.7185 37.1451 17.2631 36.9566C17.7895 36.7682 18.2433 36.4698 18.6245 36.1086L19.3869 36.8624C18.9331 37.3335 18.3704 37.6947 17.7169 37.9146C17.0089 38.1659 16.2647 38.2915 15.5022 38.2758C14.5401 38.2915 13.5962 38.103 12.7612 37.7104C11.9806 37.3492 11.3453 36.7996 10.8914 36.1243C10.4376 35.4334 10.2016 34.6482 10.2198 33.8473C10.2016 33.0464 10.4195 32.2612 10.8551 31.5702C11.2545 30.9106 11.8717 30.3767 12.616 29.9998C13.3784 29.6229 14.2497 29.4344 15.121 29.4344C15.9924 29.4187 16.8637 29.6229 17.6261 29.9998C18.3522 30.3767 18.9694 30.9106 19.3688 31.5545C19.8044 32.2612 20.0223 33.0464 20.0041 33.8473L19.986 34.2242ZM12.6886 31.2561C12.0169 31.8057 11.6176 32.5595 11.5631 33.3447H18.679C18.6245 32.5438 18.2251 31.8057 17.5535 31.2561C16.8818 30.7222 16.0105 30.4238 15.1029 30.4552C14.2315 30.4395 13.3421 30.7222 12.6886 31.2561Z" fill="white"/>
<path d="M30.5166 30.3926C31.2609 31.0208 31.6421 31.9473 31.6421 33.1565V38.1975H30.2806V33.2664C30.2806 32.3713 30.0265 31.6803 29.5001 31.1935C28.9736 30.7067 28.2294 30.4868 27.2673 30.4868C26.1781 30.4868 25.3249 30.7695 24.7077 31.3191C24.0905 31.8688 23.7638 32.6383 23.7638 33.6276V38.1818H22.4023V29.4975H23.6912V31.0993C24.0542 30.5654 24.5988 30.1413 25.2342 29.8744C25.9421 29.576 26.7227 29.419 27.5214 29.4347C28.7739 29.4504 29.7723 29.7645 30.5166 30.3926Z" fill="white"/>
<path d="M40.2289 38.5174C39.9566 38.7216 39.6299 38.8786 39.285 38.9728C38.9038 39.0828 38.5044 39.1299 38.105 39.1299C37.1611 39.1299 36.435 38.91 35.9267 38.4703C35.4184 38.0306 35.1643 37.4025 35.1643 36.6015V31.3407H33.3672V30.3514H35.1643V28.4512H36.5258V30.3514H39.5754V31.3407H36.5258V36.523C36.5258 37.0413 36.671 37.4339 36.9796 37.7008C37.27 37.9678 37.7057 38.1091 38.2684 38.1091C38.5407 38.1091 38.813 38.0777 39.0853 37.9992C39.3394 37.9207 39.5573 37.8108 39.7569 37.6694L40.2289 38.5174Z" fill="white"/>
<path d="M50.6994 34.2242H42.2947C42.331 35.0722 42.7667 35.8574 43.4928 36.407C44.2189 36.9566 45.1447 37.2393 46.2339 37.2393C46.8147 37.2393 47.4138 37.1451 47.9584 36.9566C48.4848 36.7682 48.9386 36.4698 49.3198 36.1086L50.0822 36.8624C49.6284 37.3335 49.0657 37.6947 48.4122 37.9146C47.7042 38.1659 46.96 38.2915 46.1976 38.2758C45.2355 38.2915 44.2915 38.103 43.4565 37.7104C42.6759 37.3492 42.0406 36.7996 41.5868 36.1243C41.1329 35.4334 40.897 34.6482 40.9151 33.8473C40.897 33.0464 41.1148 32.2612 41.5505 31.5702C41.9498 30.9106 42.567 30.3767 43.3113 29.9998C44.0737 29.6229 44.945 29.4344 45.8163 29.4344C46.6877 29.4187 47.559 29.6229 48.3214 29.9998C49.0657 30.3767 49.6647 30.9106 50.0641 31.5545C50.4997 32.2612 50.7176 33.0464 50.6994 33.8473V34.2242ZM43.402 31.2561C42.7304 31.8057 42.331 32.5595 42.2766 33.3447H49.3924C49.338 32.5595 48.9386 31.8057 48.2851 31.2561C46.9055 30.1882 44.8179 30.1882 43.402 31.2561Z" fill="white"/>
<path d="M61.2301 30.3926C61.9743 31.0208 62.3374 31.9473 62.3374 33.1565V38.1975H60.9759V33.2664C60.9759 32.3713 60.7218 31.6803 60.1954 31.1935C59.6689 30.7224 58.9247 30.4868 57.9626 30.4868C56.8734 30.4868 56.0202 30.7695 55.4031 31.3191C54.7859 31.8688 54.4591 32.6383 54.4591 33.6276V38.1818H53.0977V29.4975H54.4047V31.0993C54.7677 30.5654 55.3123 30.1413 55.9476 29.8744C56.6556 29.576 57.4362 29.419 58.2349 29.4347C59.4874 29.4504 60.4858 29.7645 61.2301 30.3926Z" fill="white"/>
<path d="M74.7179 29.4336V38.1336H73.4109V36.5475C73.066 37.0657 72.5577 37.4897 71.9405 37.7724C71.287 38.0708 70.5428 38.2278 69.7985 38.2121C68.4915 38.2121 67.4568 37.898 66.6944 37.2542C65.932 36.626 65.5508 35.6995 65.5508 34.4746V29.4336H66.9122V34.3646C66.9122 35.2755 67.1664 35.9822 67.6928 36.4533C68.2192 36.9244 68.9635 37.16 69.9256 37.16C70.9784 37.16 71.8135 36.8773 72.4307 36.3276C73.0479 35.778 73.3565 34.9928 73.3565 34.0035V29.4493L74.7179 29.4336Z" fill="white"/>
<path d="M93.6352 30.377C94.3613 31.0052 94.7062 31.9317 94.7244 33.1566V38.1976H93.3629V33.2665C93.3629 32.3714 93.1088 31.6804 92.6187 31.1936C92.1104 30.7225 91.4025 30.4869 90.4948 30.4869C89.4601 30.4869 88.6251 30.7696 88.026 31.3193C87.427 31.8689 87.1184 32.6384 87.1184 33.6277V38.1819H85.757V33.2665C85.757 32.3714 85.5028 31.6804 84.9945 31.1936C84.4863 30.7225 83.7783 30.4869 82.8525 30.4869C81.8178 30.4869 81.0009 30.7696 80.4019 31.3193C79.8029 31.8689 79.4943 32.6384 79.4943 33.6277V38.1819H78.1328V29.4976H79.4398V31.0837C79.7847 30.5655 80.3111 30.1415 80.9283 29.8588C81.6181 29.5604 82.3624 29.4191 83.1248 29.4348C83.8872 29.4191 84.6496 29.5761 85.3031 29.9059C85.9203 30.22 86.4105 30.7068 86.6827 31.2721C87.0458 30.6911 87.6085 30.2357 88.2802 29.9216C89.0063 29.5918 89.8232 29.4191 90.6582 29.4348C91.9289 29.4348 92.9091 29.7489 93.6352 30.377Z" fill="white"/>
<path d="M37.5108 46.7731C37.7463 46.8835 37.9455 47.057 38.0723 47.2621C38.344 47.7195 38.344 48.2558 38.0723 48.7132C37.9455 48.9183 37.7463 49.0918 37.5108 49.2022C37.2572 49.3284 36.9855 49.3757 36.7137 49.3757C36.4783 49.3757 36.2428 49.3284 36.0254 49.2337C35.8261 49.1391 35.645 48.9971 35.5182 48.8394V50.3536H35.1016V46.6154H35.5001V47.1517C35.6269 46.9782 35.7899 46.8362 36.0073 46.7416C36.2247 46.6469 36.4601 46.5996 36.7137 46.5996C36.9855 46.5996 37.2572 46.6627 37.5108 46.7731ZM37.2753 48.9183C37.4564 48.8236 37.6014 48.6974 37.6919 48.5397C37.8912 48.1927 37.8912 47.7826 37.6919 47.4356C37.6014 47.2779 37.4564 47.1517 37.2753 47.057C36.8949 46.8835 36.4601 46.8835 36.0797 47.057C35.8986 47.1517 35.7537 47.2779 35.6631 47.4356C35.4639 47.7826 35.4639 48.1927 35.6631 48.5397C35.7537 48.6974 35.8986 48.8236 36.0797 48.9183C36.4601 49.0918 36.913 49.0918 37.2753 48.9183Z" fill="white"/>
<path d="M43.0882 46.7416C43.3056 46.6469 43.5592 46.5996 43.8128 46.5996V46.9624H43.7041C43.4143 46.9466 43.1245 47.0413 42.9252 47.2305C42.726 47.4356 42.6173 47.7037 42.6354 47.9719V49.3599H42.2188V46.6312H42.6173V47.1674C42.726 46.9782 42.889 46.8362 43.0882 46.7416Z" fill="white"/>
<path d="M48.5374 49.1904C48.3019 49.0799 48.1026 48.9064 47.9577 48.7014C47.686 48.2597 47.686 47.7077 47.9577 47.266C48.0845 47.061 48.2838 46.8875 48.5374 46.7771C49.0446 46.5405 49.6605 46.5405 50.1677 46.7771C50.4031 46.8875 50.6024 47.061 50.7292 47.266C51.0009 47.7077 51.0009 48.244 50.7292 48.7014C50.6024 48.9064 50.4031 49.0799 50.1677 49.1904C49.6605 49.427 49.0446 49.427 48.5374 49.1904ZM49.9684 48.9064C50.1495 48.8118 50.2945 48.6856 50.385 48.5279C50.5843 48.1809 50.5843 47.7708 50.385 47.4238C50.2945 47.266 50.1495 47.1398 49.9684 47.0452C49.588 46.8717 49.1351 46.8717 48.7728 47.0452C48.5917 47.1398 48.4468 47.266 48.3562 47.4238C48.157 47.7708 48.157 48.1809 48.3562 48.5279C48.4468 48.6856 48.5917 48.8118 48.7728 48.9064C49.1351 49.0799 49.588 49.0799 49.9684 48.9064Z" fill="white"/>
<path d="M57.2842 46.7731C57.5197 46.8835 57.719 47.057 57.8458 47.2621C58.1175 47.7195 58.1175 48.2558 57.8458 48.7132C57.719 48.9183 57.5197 49.0918 57.2842 49.2022C57.0306 49.3284 56.7589 49.3757 56.4872 49.3757C56.2517 49.3757 56.0162 49.3284 55.7988 49.2337C55.5996 49.1391 55.4184 48.9971 55.2916 48.8394V50.3536H54.875V46.6154H55.2735V47.1517C55.4003 46.9782 55.5633 46.8362 55.7807 46.7416C55.9981 46.6469 56.2517 46.5996 56.4872 46.5996C56.777 46.5996 57.0487 46.6627 57.2842 46.7731ZM57.0487 48.9183C57.2299 48.8236 57.3748 48.6974 57.4654 48.5397C57.6646 48.1927 57.6646 47.7826 57.4654 47.4356C57.3748 47.2779 57.2299 47.1517 57.0487 47.057C56.6683 46.8835 56.2336 46.8835 55.8532 47.057C55.672 47.1517 55.5271 47.2779 55.4365 47.4356C55.2373 47.7826 55.2373 48.1927 55.4365 48.5397C55.5271 48.6974 55.672 48.8236 55.8532 48.9183C56.2336 49.0918 56.6864 49.0918 57.0487 48.9183Z" fill="white"/>
</svg>
