<svg width="89" height="60" viewBox="0 0 89 60" fill="none" xmlns="http://www.w3.org/2000/svg">
<g clip-path="url(#clip0_2858_8424)">
<path d="M62.6732 43.2676C60.5733 42.7122 61.1542 38.9633 63.2525 39.5181C65.7031 40.1659 68.1533 40.8138 70.6038 41.462C64.2233 34.5927 55.8288 29.2154 46.4604 27.8205C44.772 27.5693 42.5848 27.4422 40.4355 27.6628C38.385 33.9693 34.4264 42.0459 29.8689 37.637C27.7254 35.5633 28.4351 31.3357 30.0299 29.167C31.7655 26.8072 34.6397 25.6633 37.4947 25.1532C37.8219 23.9185 38.07 22.6693 38.2098 21.4259C38.5306 18.5722 38.5722 12.7306 35.4643 11.1434C33.0555 9.91377 29.6461 13.2366 28.105 14.7098C23.9292 18.7032 20.443 23.6538 17.5453 28.64C16.6723 30.1418 13.1725 28.7116 14.0008 27.2874C17.6111 21.0754 22.1168 14.1807 28.1573 10.1183C36.7893 4.31173 42.685 13.481 41.9127 21.7138C41.8569 22.3084 41.6366 23.4189 41.2781 24.7948C52.9367 24.4862 64.1597 30.999 72.281 39.1932C71.6753 37.082 71.0697 34.9706 70.4645 32.8593C69.8542 30.7305 72.9275 29.0379 73.6067 31.4072C74.813 35.6128 76.0191 39.8183 77.2252 44.0237C77.5336 45.0983 76.8019 47.0044 75.3647 46.6246C71.1332 45.5054 66.903 44.387 62.6727 43.2684L62.6732 43.2676ZM32.27 34.1332C32.2662 34.2278 32.3088 34.4988 32.3573 34.8101C33.0023 33.9789 34.037 33.0688 34.4833 32.3243C35.1793 31.1639 35.7928 29.9265 36.3199 28.6473C34.063 29.6064 32.3911 31.2987 32.27 34.1332Z" fill="#F07C4A"/>
</g>
<defs>
<clipPath id="clip0_2858_8424">
<rect width="67.561" height="60" fill="white" transform="translate(10.3125)"/>
</clipPath>
</defs>
</svg>
