<svg width="30" height="30" viewBox="0 0 30 30" fill="none" xmlns="http://www.w3.org/2000/svg">
<g clip-path="url(#clip0_2858_8516)">
<path d="M8.79358 28.7111C21.3552 28.7111 28.226 18.3033 28.226 9.2787C28.226 8.98243 28.226 8.68782 28.206 8.39654C29.5429 7.42871 30.6966 6.23045 31.6131 4.85793C30.3666 5.41053 29.0442 5.77298 27.69 5.93316C29.1159 5.0794 30.183 3.73667 30.6927 2.15487C29.3523 2.95029 27.886 3.51094 26.3568 3.81266C25.3272 2.71706 23.9651 1.99148 22.4814 1.74825C20.9977 1.50503 19.4752 1.75773 18.1496 2.46724C16.8241 3.17674 15.7694 4.30346 15.1489 5.67294C14.5284 7.04243 14.3767 8.57827 14.7173 10.0427C12.0019 9.9066 9.34552 9.20101 6.92049 7.97172C4.49546 6.74244 2.35605 5.01692 0.641127 2.9072C-0.232177 4.41053 -0.499702 6.19019 -0.106982 7.88383C0.285739 9.57748 1.30918 11.0578 2.75497 12.0234C1.66852 11.9919 0.605565 11.6996 -0.344225 11.1712V11.2577C-0.343577 12.8344 0.202371 14.3624 1.20104 15.5825C2.19971 16.8027 3.58964 17.6399 5.13513 17.9521C4.12949 18.2263 3.07437 18.2661 2.05091 18.0686C2.48727 19.4259 3.33699 20.6129 4.48122 21.4635C5.62544 22.314 7.00692 22.7856 8.4324 22.8123C7.01615 23.9251 5.39443 24.7478 3.65998 25.2333C1.92552 25.7188 0.112371 25.8577 -1.67578 25.6419C1.44773 27.6464 5.08218 28.7096 8.79358 28.7044" fill="white"/>
</g>
<defs>
<clipPath id="clip0_2858_8516">
<rect width="30" height="30" fill="white"/>
</clipPath>
</defs>
</svg>
